<svg width="22" height="22" viewBox="0 0 22 22" fill="none" xmlns="http://www.w3.org/2000/svg">
  <path
    d="M20.2854 0.954498H1.66689C1.02934 0.954498 0.511719 1.47109 0.511719 2.10969V20.7285C0.511719 21.3671 1.02934 21.8844 1.66689 21.8844H11.6905V13.7791H8.96321V10.6199H11.6905V8.29023C11.6905 5.58732 13.3409 4.11473 15.7526 4.11473C16.9088 4.11473 17.9003 4.20123 18.1894 4.23879V7.06405L16.5166 7.06474C15.2053 7.06474 14.9524 7.68817 14.9524 8.60246V10.6189H18.0809L17.6718 13.7777H14.952V21.8834H20.2851C20.9233 21.8834 21.4413 21.3654 21.4413 20.7285V2.109C21.4409 1.47109 20.9236 0.954498 20.2854 0.954498Z"
    fill="#3472CF"
  />
</svg>
